<svg width="18" height="16" viewBox="0 0 18 16" fill="none" xmlns="http://www.w3.org/2000/svg">
    <path d="M7.24528 6.90226C6.24906 6.90226 5.43396 6.58015 4.8 5.93594C4.16604 5.29173 3.84906 4.46346 3.84906 3.45113C3.84906 2.4388 4.16604 1.61053 4.8 0.966316C5.43396 0.322105 6.24906 0 7.24528 0C8.24151 0 9.0566 0.322105 9.69057 0.966316C10.3245 1.61053 10.6415 2.4388 10.6415 3.45113C10.6415 4.46346 10.3245 5.29173 9.69057 5.93594C9.0566 6.58015 8.24151 6.90226 7.24528 6.90226ZM0 14.2877V12.125C0 11.5881 0.132075 11.105 0.396226 10.6755C0.660377 10.246 1.04151 9.91624 1.53962 9.68617C2.62642 9.19534 3.63396 8.84256 4.56226 8.62782C5.49057 8.41308 6.38491 8.30571 7.24528 8.30571H7.76604C7.67547 8.52045 7.60755 8.73135 7.56226 8.93842C7.51698 9.14549 7.47925 9.39474 7.44906 9.68617H7.24528C6.36981 9.68617 5.51321 9.78203 4.67547 9.97376C3.83774 10.1655 2.97359 10.4838 2.08302 10.9286C1.84151 11.0513 1.66038 11.2238 1.53962 11.4462C1.41887 11.6686 1.35849 11.8949 1.35849 12.125V12.9072H7.44906C7.52453 13.1833 7.61509 13.4326 7.72075 13.655C7.82642 13.8774 7.95472 14.0883 8.10566 14.2877H0ZM13.2906 15.3L13.0642 13.7815C12.8075 13.7048 12.5472 13.5936 12.283 13.4479C12.0189 13.3022 11.7962 13.1373 11.6151 12.9532L10.3698 13.2293L9.80377 12.263L10.8679 11.2507C10.8377 11.1126 10.8226 10.9209 10.8226 10.6755C10.8226 10.4301 10.8377 10.2383 10.8679 10.1003L9.80377 9.08797L10.3698 8.12165L11.6151 8.39774C11.7962 8.21368 12.0189 8.0488 12.283 7.90308C12.5472 7.75737 12.8075 7.64617 13.0642 7.56947L13.2906 6.05098H14.5132L14.7396 7.56947C14.9962 7.64617 15.2566 7.75737 15.5208 7.90308C15.7849 8.0488 16.0075 8.21368 16.1887 8.39774L17.434 8.12165L18 9.08797L16.9359 10.1003C16.966 10.2383 16.9811 10.4301 16.9811 10.6755C16.9811 10.9209 16.966 11.1126 16.9359 11.2507L18 12.263L17.434 13.2293L16.1887 12.9532C16.0075 13.1373 15.7849 13.3022 15.5208 13.4479C15.2566 13.5936 14.9962 13.7048 14.7396 13.7815L14.5132 15.3H13.2906ZM13.9019 12.5161C14.4453 12.5161 14.883 12.3474 15.2151 12.0099C15.5472 11.6725 15.7132 11.2277 15.7132 10.6755C15.7132 10.1233 15.5472 9.6785 15.2151 9.34105C14.883 9.00361 14.4453 8.83489 13.9019 8.83489C13.3585 8.83489 12.9208 9.00361 12.5887 9.34105C12.2566 9.6785 12.0906 10.1233 12.0906 10.6755C12.0906 11.2277 12.2566 11.6725 12.5887 12.0099C12.9208 12.3474 13.3585 12.5161 13.9019 12.5161ZM7.24528 5.5218C7.83396 5.5218 8.32076 5.32624 8.70566 4.93511C9.09057 4.54399 9.28302 4.04932 9.28302 3.45113C9.28302 2.85293 9.09057 2.35827 8.70566 1.96714C8.32076 1.57601 7.83396 1.38045 7.24528 1.38045C6.6566 1.38045 6.16981 1.57601 5.78491 1.96714C5.4 2.35827 5.20755 2.85293 5.20755 3.45113C5.20755 4.04932 5.4 4.54399 5.78491 4.93511C6.16981 5.32624 6.6566 5.5218 7.24528 5.5218Z" fill="white" />
</svg>
